<svg version="1.1" xmlns="http://www.w3.org/2000/svg" data-original-aspect-ratio="0.722834276086445" style="width: 45px; height: 63px;">
<g transform="translate(-4.341293372479439,-2.528732429257393)">
<path d="M38.146901 38.081375l1.458173 -5.389701l5.605658 -3.660198l-2.382912 -6.257221l2.382912 -6.256298l-5.605658 -3.660198l-1.748884 -6.463027l-6.68729 0.334088l-5.213428 -4.200091l-5.213428 4.200091l-6.68729 -0.334088l-1.749807 6.463027L6.70021 16.517957l2.382912 6.256298l-2.382912 6.257221l5.605658 3.660198l2.297083 7.0223L4.341293 58.450569l8.537692 -2.845282l2.788063 8.922539l11.094109 -21.432367l11.087649 21.43329l2.788063 -8.922539l8.520157 2.839745L38.146901 38.081375zM15.862702 60.012105l-2.010986 -6.43534l-5.860377 1.953767l8.838556 -16.13957l0.71432 -0.104287l2.990177 -0.148586l4.429891 3.289194L15.862702 60.012105zM26.132667 40.508586l-4.523103 -3.357488l-0.257487 -0.207651l-0.020304 0.000923l0 0l-3.822627 0.191039l-2.059899 0.102441l-1.544925 -5.706254l-4.949481 -3.231975l2.104198 -5.524443l-2.104198 -5.523521l4.949481 -3.231975l1.544925 -5.706254l5.903753 0.294403l4.603395 -3.708188l4.603395 3.708188l5.903753 -0.294403l1.544002 5.706254l4.949481 3.231975l-2.104198 5.523521l2.104198 5.524443l-4.949481 3.231975l-1.544002 5.706254l-5.903753 -0.294403L26.132667 40.508586zM39.437106 53.25929l-2.010986 6.434417L27.964611 41.402871l3.205211 -2.582257l5.425694 0.271331L45.314095 55.218594L39.437106 53.25929z"></path>
</g>
</svg>