<svg version="1.1" xmlns="http://www.w3.org/2000/svg" data-original-aspect-ratio="1.1267589149578743" style="width: 57px; height: 51px;">
<g transform="translate(-2.5419435501098633,-4.495416641235352)">
<path d="M53.954501 24.568954c-2.720493 0,-4.926469 2.205976,-4.926469 4.926469c0 0.029582,0.008452 0.057051,0.008452 0.086633H35.539671c-0.198622 -0.990999,-0.695178 -1.872122,-1.391413 -2.551452L43.600781 14.262777c0.275747 0.047543,0.55572 0.085577,0.845202 0.085577c2.720493 0,4.926469 -2.205976,4.926469 -4.926469c0 -2.720493,-2.205976 -4.926469,-4.926469 -4.926469s-4.926469 2.205976,-4.926469 4.926469c0 1.653426,0.821959 3.109285,2.0718 4.00203l-9.252845 12.498419c-0.512403 -0.180662,-1.054389 -0.296877,-1.62807 -0.296877c-0.616997 0,-1.201243 0.12678,-1.745341 0.333855l-9.139799 -12.530114c1.254068 -0.892744,2.078139 -2.350717,2.078139 -4.007312c0 -2.720493,-2.205976 -4.926469,-4.926469 -4.926469s-4.926469 2.205976,-4.926469 4.926469c0 2.720493,2.205976 4.926469,4.926469 4.926469c0.288425 0,0.566285 -0.036978,0.840976 -0.08452l9.373286 12.849177c-0.652918 0.667709,-1.118836 1.517137,-1.309006 2.469045H12.386429c0 -0.029582,0.008452 -0.057051,0.008452 -0.086633c0 -2.720493,-2.205976 -4.926469,-4.926469 -4.926469s-4.926469 2.205976,-4.926469 4.926469s2.205976 4.926469,4.926469 4.926469c1.926003 0,3.576259 -1.115666,4.386596 -2.726832h14.076833c0.187001 0.783924,0.565229 1.486498,1.076576 2.07497l-7.665979 11.503194c-0.704687 -0.389849,-1.503402 -0.630732,-2.366564 -0.630732c-2.720493 0,-4.926469 2.205976,-4.926469 4.926469s2.205976 4.926469,4.926469 4.926469s4.926469 -2.205976,4.926469 -4.926469c0 -1.085028,-0.361324 -2.079196,-0.956134 -2.892702l7.753668 -11.635257c0.614884 0.275747,1.293158 0.437392,2.010523 0.437392c0.556777 0,1.082915 -0.113046,1.58264 -0.283143l7.868827 11.983902c-0.397245 0.711026,-0.64341 1.517137,-0.64341 2.389808c0 2.720493,2.205976 4.926469,4.926469 4.926469s4.926469 -2.205976,4.926469 -4.926469s-2.205976 -4.926469,-4.926469 -4.926469c-1.054389 0,-2.026371 0.338081,-2.828256 0.902253l-7.509616 -11.437691c0.674048 -0.64341,1.160039 -1.474877,1.382961 -2.411994h14.076833c0.810337 1.611166,2.460593 2.726832,4.386596 2.726832c2.720493 0,4.926469 -2.205976,4.926469 -4.926469S56.674993 24.568954,53.954501 24.568954zM44.445983 6.60842c1.550945 0,2.813465 1.26252,2.813465 2.813465c0 1.550945,-1.26252 2.813465,-2.813465 2.813465c-1.550945 0,-2.813465 -1.26252,-2.813465 -2.813465C41.632518 7.87094,42.895038 6.60842,44.445983 6.60842zM16.976931 12.23535c-1.550945 0,-2.813465 -1.26252,-2.813465 -2.813465c0 -1.550945,1.26252 -2.813465,2.813465 -2.813465c1.550945 0,2.813465 1.26252,2.813465 2.813465C19.790395 10.973886,18.527876 12.23535,16.976931 12.23535zM7.468413 32.308888c-1.550945 0,-2.813465 -1.26252,-2.813465 -2.813465c0 -1.550945,1.26252 -2.813465,2.813465 -2.813465c1.550945 0,2.813465 1.26252,2.813465 2.813465C10.281877 31.047424,9.019358 32.308888,7.468413 32.308888zM16.976931 52.382426c-1.550945 0,-2.813465 -1.26252,-2.813465 -2.813465c0 -1.550945,1.26252 -2.813465,2.813465 -2.813465c1.550945 0,2.813465 1.26252,2.813465 2.813465C19.790395 51.120962,18.527876 52.382426,16.976931 52.382426zM44.445983 46.755496c1.550945 0,2.813465 1.26252,2.813465 2.813465c0 1.550945,-1.26252 2.813465,-2.813465 2.813465c-1.550945 0,-2.813465 -1.26252,-2.813465 -2.813465C41.632518 48.018016,42.895038 46.755496,44.445983 46.755496zM30.711457 33.36539c-1.550945 0,-2.813465 -1.26252,-2.813465 -2.813465c0 -1.550945,1.26252 -2.813465,2.813465 -2.813465c1.550945 0,2.813465 1.26252,2.813465 2.813465C33.524921 32.103926,32.262402 33.36539,30.711457 33.36539zM53.954501 32.308888c-1.550945 0,-2.813465 -1.26252,-2.813465 -2.813465c0 -1.550945,1.26252 -2.813465,2.813465 -2.813465c1.550945 0,2.813465 1.26252,2.813465 2.813465C56.767965 31.047424,55.505446 32.308888,53.954501 32.308888z"></path>
</g>
</svg>