<svg version="1.1" xmlns="http://www.w3.org/2000/svg" data-original-aspect-ratio="1.110518877304321" style="width: 56px; height: 51px;">
<g transform="translate(-4.488718032836914,-2.7496449947357178)">
<path d="M51.694659 50.528615c-0.001111 -0.031095,0.005553 -0.062189,0.002221 -0.093284l-1.257108 -13.451717l-0.665201 -0.759595C32.386066 13.676041,32.271682 13.881488,31.527634 13.881488h-0.40756l-0.309835 0.055526c-0.441987 0.370913,-6.747513 4.876289,-10.877534 7.952427l-0.901741 0.670753L37.746541 47.0749l9.527143 3.453714H4.488718v2.221038h55.52595v-2.221038H51.694659zM22.160407 22.998848c2.149965 -1.601368,7.185058 -5.356033,9.228413 -6.908539c2.273232 2.755198,10.231212 12.996404,15.9626 20.422444l-9.219529 7.404941L22.160407 22.998848zM39.888732 45.371364l8.351103 -6.639793l1.061656 10.152365L39.888732 45.371364z"></path>
<path d="M17.348528 20.814458l13.070809 -9.463843l-0.714064 -0.908405c-0.162136 -0.205446,-3.967884 -5.045088,-5.051751 -6.293311c-1.003909 -1.15605,-2.179949 -1.399254,-2.988407 -1.399254c-0.674085 0,-1.158271 0.169909,-1.248223 0.204335L20.244761 3.036159c-0.146589 0.08551,-3.606966 2.129975,-6.259996 4.42986c-2.061123 1.786825,-2.376511 2.904007,-2.406495 3.745781c-0.36425 1.762394,2.574183 5.761373,5.105056 8.804195L17.348528 20.814458zM13.790425 11.323962c0.007774 -0.19212,0.033316 -0.779584,1.649121 -2.178838c2.239917 -1.941187,5.206113 -3.757996,5.818009 -4.126689c0.082178 -0.019989,0.227656 -0.046642,0.405339 -0.046642c0.511949 0,0.94172 0.207667,1.312633 0.634106c0.771811 0.888415,3.082801 3.802417,4.267725 5.301618l-9.507153 6.882997c-2.007818 -2.514215,-3.953448 -5.390459,-3.981211 -6.130065C13.773767 11.568276,13.784872 11.457225,13.790425 11.323962z"></path>
<path d="M27.429819 23.855059c-0.144367 -0.191009,-0.49307 -0.169909,-0.778474 0.045531l-0.517502 0.392013c-0.285403 0.216551,-0.400897 0.546375,-0.25653 0.737385l10.572141 14.006976c0.144367 0.191009,0.49307 0.169909,0.778474 -0.045531l0.517502 -0.392013c0.285403 -0.216551,0.399787 -0.546375,0.255419 -0.737385L27.429819 23.855059z"></path>
</g>
</svg>